<?xml version="1.0" standalone="no"?>
<!DOCTYPE svg PUBLIC "-//W3C//DTD SVG 20010904//EN"
 "http://www.w3.org/TR/2001/REC-SVG-20010904/DTD/svg10.dtd">
<svg version="1.0" xmlns="http://www.w3.org/2000/svg"
 width="916.000000pt" height="1280.000000pt" viewBox="0 0 916.000000 1280.000000"
 preserveAspectRatio="xMidYMid meet">
<g transform="translate(0.000000,1280.000000) scale(0.100000,-0.100000)"
fill="#000000" stroke="none">
<path d="M5435 12424 c-97 -14 -101 -15 -81 -29 16 -13 14 -15 -25 -25 -24 -6
-66 -22 -94 -35 -27 -14 -70 -31 -93 -40 -57 -19 -142 -75 -142 -92 0 -35 -60
-105 -145 -171 l-30 -23 48 6 c26 3 47 3 47 -2 0 -4 -32 -48 -70 -96 -67 -85
-90 -137 -76 -173 3 -8 10 -13 15 -9 6 3 14 -3 20 -13 9 -18 -5 -148 -24 -224
-9 -34 -1 -35 41 -3 46 35 54 32 54 -20 0 -43 11 -58 26 -34 14 23 23 -9 28
-99 9 -149 46 -253 46 -130 0 70 14 96 29 56 12 -33 42 -183 43 -218 1 -40
-59 -194 -97 -250 -17 -25 -40 -66 -50 -93 -19 -49 -68 -101 -114 -118 -14 -6
-44 -8 -66 -4 -22 3 -73 10 -113 15 -39 5 -85 16 -101 25 -29 15 -30 14 -48
-23 -13 -26 -24 -36 -38 -35 -11 1 -72 5 -135 8 -103 6 -121 5 -172 -14 -81
-31 -150 -97 -193 -184 -20 -40 -38 -88 -40 -107 -20 -147 -55 -451 -60 -525
-11 -155 -35 -324 -70 -495 -19 -91 -53 -275 -75 -410 -44 -274 -51 -300 -110
-454 -23 -60 -57 -173 -76 -250 -19 -78 -39 -154 -45 -171 -29 -79 -47 -180
-53 -285 -3 -63 -11 -177 -16 -253 -15 -203 -15 -396 -2 -409 7 -7 12 -48 12
-103 0 -50 11 -150 24 -225 24 -137 26 -198 10 -405 -6 -84 -3 -126 26 -335
13 -97 19 -120 28 -120 19 1 35 21 42 56 5 22 16 59 25 84 9 25 21 74 26 110
9 65 35 158 48 173 4 4 41 -1 82 -12 l74 -19 0 -48 c-1 -27 -5 -130 -9 -229
-8 -167 -10 -181 -30 -197 -19 -15 -21 -28 -24 -143 -3 -94 0 -130 10 -142 10
-13 13 -84 14 -327 1 -171 -2 -318 -6 -326 -5 -9 -5 -22 0 -30 5 -9 4 -51 -1
-95 -10 -80 -12 -318 -4 -385 2 -19 4 -82 5 -140 1 -136 19 -298 36 -332 8
-15 14 -40 14 -55 -1 -16 4 -48 9 -73 6 -25 19 -88 29 -140 9 -52 22 -102 27
-110 5 -8 9 -84 10 -170 2 -172 -2 -156 114 -540 91 -301 158 -559 188 -735
26 -147 28 -180 27 -410 0 -276 -16 -408 -58 -501 -13 -28 -56 -98 -95 -156
-39 -58 -92 -151 -117 -208 -75 -165 -69 -196 74 -424 38 -61 78 -113 88 -117
52 -20 263 0 323 31 65 33 68 41 80 210 6 85 16 173 21 195 6 22 19 108 30
190 30 233 94 399 114 293 14 -77 26 -236 32 -431 7 -207 7 -207 31 -213 48
-12 49 -8 56 195 14 384 44 622 98 761 17 45 28 87 25 95 -3 8 -1 15 4 15 26
0 22 -226 -10 -475 -13 -105 -12 -204 4 -266 8 -30 19 -125 26 -212 6 -86 15
-168 20 -181 13 -35 61 -47 211 -53 143 -6 161 -1 185 55 37 87 93 265 110
344 21 100 16 147 -36 388 -26 119 -33 176 -37 316 -3 104 -1 203 5 250 7 44
19 167 27 274 9 107 22 215 30 240 7 25 16 81 19 125 3 44 21 143 41 219 19
76 35 154 35 173 0 19 27 139 60 267 84 327 112 545 74 577 -14 12 -16 32 -12
147 3 82 0 166 -8 220 -45 299 -42 391 21 702 20 96 42 211 50 255 24 144 45
247 54 264 4 9 11 36 15 61 9 61 45 211 131 545 18 72 31 133 28 138 -2 4 18
98 46 210 27 111 53 223 56 249 5 42 11 49 53 77 26 16 64 47 85 68 l37 39
-16 47 c-15 45 -15 48 5 81 12 18 21 42 21 52 0 11 9 30 20 44 11 14 20 31 20
39 0 7 -39 88 -86 180 -47 91 -103 209 -126 261 -69 164 -231 447 -318 558
-23 29 -58 60 -77 70 -48 22 -128 128 -148 194 -18 61 -20 131 -4 160 14 26
49 172 49 204 0 33 21 73 69 128 22 25 50 63 62 86 12 22 26 40 30 40 4 0 9 9
12 21 7 28 27 20 52 -20 139 -225 260 -350 416 -430 96 -49 129 -51 192 -12
120 77 157 249 92 428 -55 152 -116 506 -136 783 -18 258 -37 414 -55 460 -48
121 -114 184 -259 248 l-110 49 -5 44 -5 44 -56 6 c-31 3 -85 16 -120 27 -35
12 -76 24 -91 27 -15 3 -39 16 -54 28 -25 21 -27 29 -25 86 1 34 9 86 19 114
19 57 11 55 118 41 57 -7 90 5 151 59 82 72 220 275 247 363 20 65 38 104 115
243 62 112 74 167 69 311 -3 95 -6 112 -35 171 -44 89 -138 190 -202 218 -36
15 -58 34 -80 66 -17 26 -31 52 -31 58 0 22 -70 126 -90 132 -10 3 -25 17 -34
30 -10 15 -26 25 -40 25 -13 0 -43 15 -65 34 -69 58 -181 92 -266 80z m-511
-756 c-26 -50 -56 -88 -66 -82 -14 9 53 114 73 114 5 0 2 -15 -7 -32z m-922
-3549 c20 -129 -15 -490 -51 -540 -25 -34 -41 -121 -41 -223 0 -155 -45 -347
-111 -478 -16 -32 -35 -58 -42 -57 -14 0 -96 112 -111 151 -8 21 -7 31 6 45 9
10 28 63 42 118 15 55 31 111 35 125 5 14 16 52 26 85 25 85 94 296 105 320
21 48 33 115 34 185 1 52 12 110 35 190 18 63 35 119 38 123 11 19 28 -3 35
-44z m1041 -1985 c4 -84 1 -161 -9 -235 -15 -115 -16 -153 -13 -334 2 -98 -2
-194 -16 -420 -2 -38 -7 -108 -9 -155 -3 -47 -6 -202 -7 -345 -1 -267 13 -411
47 -494 15 -37 18 -182 5 -266 -26 -164 -55 -271 -79 -297 l-25 -27 7 -208 c3
-114 10 -266 15 -338 6 -79 6 -162 0 -213 -7 -58 -6 -96 2 -125 14 -53 3 -487
-16 -632 -8 -57 -25 -127 -39 -162 -14 -35 -29 -93 -34 -130 l-7 -68 -68 116
c-48 83 -69 130 -73 165 -4 27 -12 56 -19 64 -33 40 -46 81 -39 129 4 33 2 57
-9 77 -12 24 -15 100 -15 459 -1 397 -10 575 -31 630 -25 62 -42 95 -50 95 -5
0 -17 26 -26 58 -9 31 -23 72 -31 90 -8 18 -14 40 -14 48 0 8 -9 35 -20 60
-12 25 -26 70 -31 102 -6 31 -18 70 -26 86 -15 30 -15 41 7 171 17 107 29 166
35 176 4 5 8 20 10 32 2 12 11 56 20 97 9 41 17 82 17 90 0 8 6 49 14 90 8 41
17 104 20 140 3 36 11 119 19 185 9 66 16 129 16 140 1 11 8 76 15 145 8 69
14 131 14 138 0 7 11 17 24 24 19 8 42 47 90 153 78 169 82 189 44 193 -17 2
-28 9 -28 18 0 8 18 70 40 137 22 66 47 160 55 207 9 47 23 117 33 155 16 62
22 72 52 87 19 10 56 18 81 18 l46 0 6 -126z"/>
</g>
</svg>
