<?xml version="1.0" standalone="no"?>
<!DOCTYPE svg PUBLIC "-//W3C//DTD SVG 20010904//EN"
 "http://www.w3.org/TR/2001/REC-SVG-20010904/DTD/svg10.dtd">
<svg version="1.0" xmlns="http://www.w3.org/2000/svg"
 width="1084.000000pt" height="1280.000000pt" viewBox="0 0 1084.000000 1280.000000"
 preserveAspectRatio="xMidYMid meet">
<metadata>
Created by potrace 1.15, written by Peter Selinger 2001-2017
</metadata>
<g transform="translate(0.000000,1280.000000) scale(0.100000,-0.100000)"
fill="#000000" stroke="none">
<path d="M6490 12602 c-13 -2 -56 -16 -95 -32 -38 -15 -115 -38 -170 -50 -55
-12 -147 -37 -205 -55 -58 -19 -192 -59 -298 -89 -292 -85 -415 -134 -872
-346 -151 -70 -314 -142 -362 -158 -115 -41 -161 -65 -214 -114 -59 -55 -87
-105 -134 -249 -23 -68 -53 -146 -68 -174 l-27 -50 -150 -1 c-175 -2 -474 -35
-627 -70 -59 -13 -118 -24 -133 -24 -32 0 -93 -31 -122 -62 -33 -35 -71 -125
-79 -185 -14 -111 19 -198 224 -603 189 -372 262 -504 375 -680 88 -137 227
-394 289 -534 39 -89 39 -91 28 -155 -19 -110 -25 -115 -205 -151 -176 -36
-313 -97 -451 -201 -84 -63 -96 -69 -139 -69 -25 0 -43 -8 -61 -25 -14 -14
-60 -48 -102 -77 -151 -102 -211 -177 -247 -313 -22 -81 -31 -265 -16 -336 29
-139 122 -260 284 -369 195 -132 207 -148 265 -355 84 -298 105 -611 57 -839
-39 -184 -64 -238 -208 -456 -77 -117 -130 -231 -142 -305 -5 -33 6 -17 58 81
57 110 196 319 204 310 2 -2 -5 -53 -16 -112 -11 -60 -28 -163 -36 -229 -20
-154 -33 -221 -51 -268 -8 -20 -14 -55 -14 -76 0 -46 -45 -137 -170 -346 -136
-228 -255 -490 -365 -805 -26 -74 -93 -250 -147 -390 -55 -140 -122 -316 -150
-390 -39 -107 -57 -143 -88 -175 -52 -54 -132 -189 -170 -287 -17 -44 -44
-139 -61 -211 -16 -73 -38 -161 -49 -197 -52 -176 -111 -439 -121 -548 -11
-109 -10 -128 10 -237 27 -143 33 -157 105 -262 73 -105 130 -155 241 -209
160 -78 322 -102 490 -74 33 6 103 17 157 25 53 8 152 32 220 54 67 21 146 41
174 45 28 3 85 18 125 32 41 13 115 31 166 39 50 9 133 24 185 35 51 11 118
20 148 20 30 0 96 7 145 15 214 37 264 44 330 50 39 3 103 15 144 26 48 12
108 19 165 19 50 0 127 7 171 15 43 9 111 15 150 14 81 -2 253 9 266 17 5 3
38 2 72 -1 l62 -7 90 -171 c50 -94 115 -209 146 -256 75 -116 211 -274 284
-334 84 -68 290 -183 358 -201 160 -42 273 -44 410 -7 40 11 101 24 136 30 44
7 84 22 124 47 42 26 76 38 117 43 38 5 73 17 100 35 23 15 58 30 78 33 49 8
109 38 153 78 25 22 50 34 83 38 48 7 110 30 234 88 34 16 68 29 75 29 6 0 41
14 77 32 36 17 92 37 125 44 33 6 74 16 90 22 66 24 263 45 358 38 118 -9 217
10 344 66 123 53 206 113 355 255 127 122 192 171 290 219 l57 27 160 -77
c135 -66 170 -79 224 -83 63 -5 65 -5 105 31 32 29 50 61 91 161 28 68 55 151
59 184 23 164 -50 351 -181 466 -115 101 -183 112 -402 65 -242 -50 -323 -62
-450 -64 -100 -1 -125 2 -148 17 -15 9 -27 24 -27 32 0 26 191 183 280 229 48
25 104 65 130 90 l44 46 -34 36 c-83 85 -137 94 -183 29 -15 -22 -49 -69 -75
-105 -82 -113 -200 -176 -465 -246 -73 -19 -161 -48 -196 -66 -76 -37 -157
-111 -166 -153 -4 -16 -18 -51 -31 -77 -34 -64 -45 -141 -33 -224 5 -37 7 -69
5 -71 -9 -9 -258 64 -461 135 -60 21 -133 44 -161 51 l-51 12 -6 59 c-16 148
-155 398 -255 457 -66 39 -144 41 -352 7 -177 -28 -366 -37 -441 -21 -37 7
-37 8 -56 90 -11 45 -18 85 -16 89 4 8 217 135 278 166 23 11 84 34 136 51 53
17 109 43 128 59 l33 27 -36 63 c-62 104 -81 105 -181 12 -42 -38 -96 -83
-120 -100 -92 -63 -272 -132 -280 -107 -2 7 -22 84 -45 172 -22 88 -61 228
-86 310 -82 276 -162 640 -188 860 -25 206 -52 295 -168 538 -53 112 -62 138
-65 198 -2 45 -12 88 -28 125 -14 31 -41 97 -61 148 -19 50 -46 114 -60 143
-13 28 -24 56 -24 62 0 5 -11 18 -24 28 -20 16 -106 169 -106 190 0 3 37 -29
83 -73 92 -90 155 -140 163 -131 4 3 -20 52 -53 109 -107 184 -118 207 -104
221 10 9 14 8 22 -5 9 -16 39 -26 39 -14 0 3 -25 44 -56 93 -83 132 -141 258
-170 369 -23 89 -25 113 -21 229 7 181 34 267 185 574 101 207 191 368 306
546 60 94 71 117 71 156 1 35 18 78 75 195 41 82 88 172 106 199 17 28 60 106
96 175 36 69 90 172 121 230 60 112 127 261 181 400 81 209 121 418 131 680
19 545 26 665 49 835 31 223 61 503 81 745 22 273 34 371 61 515 62 326 67
362 67 480 1 132 -15 214 -63 321 -20 43 -38 67 -61 81 -34 21 -103 32 -149
25z m-460 -807 c0 -3 -11 -27 -24 -53 -36 -71 -80 -204 -111 -332 -15 -63 -29
-119 -32 -123 -3 -5 -23 24 -45 65 -67 124 -170 246 -266 315 -51 38 -64 32
168 73 96 17 202 37 235 44 76 17 75 17 75 11z m-2035 -1130 c4 -36 4 -84 1
-107 -7 -45 12 -198 24 -198 5 0 12 -9 15 -20 3 -11 13 -20 22 -20 13 0 15 -9
10 -58 -4 -32 -13 -74 -22 -95 -8 -20 -13 -38 -10 -38 3 -1 8 -2 13 -3 28 -6
44 -27 49 -67 6 -41 5 -43 -11 -30 -10 8 -26 31 -37 50 -11 20 -34 59 -51 86
-26 43 -225 454 -231 478 -2 7 191 84 215 86 3 1 10 -28 13 -64z m168 -672 c3
-16 9 -37 13 -48 6 -18 5 -19 -10 -4 -19 17 -36 96 -19 86 6 -4 13 -19 16 -34z
m394 -82 c60 -62 75 -84 83 -121 13 -68 22 -303 11 -319 -7 -11 -21 -12 -71
-5 l-62 9 -34 65 c-53 104 -108 340 -84 364 5 5 10 16 10 22 0 35 19 62 46 62
20 0 44 -19 101 -77z m-110 -6398 c75 -153 169 -339 209 -413 40 -74 96 -193
124 -265 56 -140 230 -594 230 -599 0 -8 -478 93 -680 144 -225 56 -331 79
-455 96 -140 19 -344 36 -356 28 -15 -9 -10 3 21 56 17 29 87 160 156 293 156
299 156 299 276 479 54 81 128 204 164 274 52 98 76 132 107 155 22 16 46 29
54 29 7 0 71 -118 150 -277z m-2381 -633 c-34 -99 -65 -178 -71 -176 -20 7 -9
120 17 178 23 49 103 178 112 178 1 0 -25 -81 -58 -180z"/>
</g>
</svg>
