<?xml version="1.0" standalone="no"?>
<!DOCTYPE svg PUBLIC "-//W3C//DTD SVG 20010904//EN"
 "http://www.w3.org/TR/2001/REC-SVG-20010904/DTD/svg10.dtd">
<svg version="1.0" xmlns="http://www.w3.org/2000/svg"
 width="920.000000pt" height="1289.000000pt" viewBox="0 0 920.000000 1289.000000"
 preserveAspectRatio="xMidYMid meet">
<metadata>
Created by potrace 1.16, written by Peter Selinger 2001-2019
</metadata>
<g transform="translate(0.000000,1289.000000) scale(0.100000,-0.100000)"
fill="#000000" stroke="none">
<path d="M5895 12473 c-107 -14 -238 -76 -445 -210 -69 -44 -152 -95 -185
-114 -151 -83 -195 -134 -261 -307 -45 -117 -77 -184 -115 -237 -35 -49 -56
-171 -65 -380 -7 -155 23 -495 71 -814 52 -341 61 -511 46 -826 -47 -940 -45
-1055 25 -1217 29 -68 30 -80 19 -235 -10 -124 3 -201 50 -298 44 -90 99 -147
257 -262 37 -28 120 -31 213 -8 33 8 79 14 102 15 37 0 43 -3 49 -24 3 -13 -1
-39 -9 -58 -14 -34 -17 -35 -105 -51 -49 -10 -169 -39 -266 -67 -97 -28 -216
-59 -264 -69 -197 -44 -684 -96 -1172 -126 -140 -8 -299 -20 -354 -25 -54 -6
-160 -10 -235 -10 -269 0 -462 -29 -581 -87 -138 -67 -292 -296 -390 -580 -23
-65 -75 -246 -115 -403 -40 -157 -91 -355 -114 -441 -22 -86 -76 -327 -121
-535 -126 -596 -148 -691 -190 -824 -21 -69 -66 -219 -100 -335 -90 -305 -126
-416 -181 -545 -123 -294 -174 -490 -264 -1009 -19 -112 -40 -210 -46 -218 -6
-7 -22 -13 -34 -13 -40 0 -164 -47 -235 -89 -38 -23 -114 -75 -169 -116 -111
-83 -119 -99 -85 -171 31 -66 95 -89 294 -105 74 -6 162 -17 195 -25 80 -18
265 -18 338 1 144 37 242 124 283 249 24 74 69 160 127 244 86 124 189 202
288 217 39 6 47 4 53 -10 13 -35 26 -255 26 -458 0 -207 0 -208 25 -232 46
-47 106 -29 137 41 17 40 19 65 17 237 -2 237 10 359 46 452 63 165 70 236 34
364 -27 97 -42 125 -124 239 -89 125 -108 169 -103 242 3 48 13 71 65 156 34
54 139 236 233 404 215 380 279 488 397 667 100 152 165 289 227 480 69 216
104 439 90 590 -8 83 -2 93 51 93 66 0 165 -60 337 -206 145 -122 347 -256
727 -484 329 -196 380 -224 546 -295 262 -112 513 -200 1040 -363 364 -113
370 -115 600 -147 255 -35 324 -53 382 -101 171 -140 249 -280 386 -694 88
-264 111 -321 153 -379 67 -95 35 -167 -126 -279 -64 -45 -68 -68 -26 -133 33
-49 94 -84 181 -104 80 -19 454 -22 543 -5 109 20 192 84 236 179 23 51 26
144 11 302 -5 58 -4 88 3 93 26 16 79 -96 109 -226 14 -62 41 -108 64 -108 22
0 69 59 70 87 2 59 -3 79 -36 128 -104 157 -124 290 -86 580 11 88 18 170 15
182 -12 44 -51 47 -180 15 -127 -31 -150 -32 -134 -2 16 30 12 88 -9 129 -11
20 -51 72 -90 115 -95 105 -95 117 4 191 247 186 430 553 522 1045 13 71 17
148 18 305 0 199 -1 215 -28 309 -61 220 -163 384 -396 634 -172 185 -231 261
-279 357 -16 33 -37 74 -46 90 -26 48 -21 96 17 145 17 23 47 63 65 89 l32 46
0 156 c0 227 -33 529 -89 819 -21 103 -27 190 -15 190 4 0 24 -16 45 -35 42
-38 64 -43 94 -21 12 9 29 11 52 6 45 -11 43 6 -7 55 -22 21 -40 43 -40 47 0
4 13 8 28 8 16 0 31 3 35 6 3 4 -5 29 -19 56 -14 27 -22 53 -19 58 4 6 41 10
83 10 l77 0 -52 30 c-56 32 -83 63 -83 96 0 32 8 34 50 11 21 -12 42 -18 47
-14 4 5 10 47 13 94 4 63 9 88 20 93 91 42 96 55 31 87 -52 27 -50 23 -156
313 -43 118 -112 294 -155 391 -80 184 -266 523 -381 695 -146 218 -216 348
-298 556 -28 69 -102 243 -165 385 -63 142 -122 277 -131 301 -26 63 -227 422
-300 533 -74 114 -228 294 -282 332 -111 77 -279 111 -438 90z m-474 -3444
c31 -16 69 -106 69 -162 0 -47 -18 -95 -48 -129 -40 -47 -61 1 -69 159 -4 83
-3 116 7 128 15 18 16 18 41 4z m400 -2275 c21 -10 39 -34 57 -72 25 -53 27
-67 27 -187 0 -75 -6 -152 -14 -182 -12 -47 -16 -53 -45 -58 -39 -8 -134 14
-247 55 -46 17 -142 46 -214 65 -71 18 -209 66 -305 105 -224 92 -378 146
-462 160 -73 13 -109 32 -93 49 7 7 132 12 345 15 283 4 376 10 595 34 315 36
318 36 356 16z"/>
</g>
</svg>
